PathFileType	4	(X/Y/Z)	./resultDataOpenSim/trcMotMarkerGrf/sub10/qtm-05-02.trc
DataRate	CameraRate	NumFrames	NumMarkers	Units	OrigDataRate	OrigDataStartFrame	OrigNumFrames
250.000000	250.000000	8	24	m	250.000000	133	530
Frame#	Time	L.Toe.Tip			R.Toe.Tip			L.Ankle.Lat			R.Ankle.Lat			L.Ankle.Med			R.Ankle.Med			L.Heel			R.Heel			L.Knee.Lat			R.Knee.Lat			L.Knee.Med			R.Knee.Med			L.Thigh.Upper			R.Thigh.Upper			L.ASIS			R.ASIS			V.Sacral			L.Acromium			R.Acromium			C7			L.Elbow			R.Elbow			L.Wrist.Lat			R.Wrist.Lat
		X1	Y1	Z1	X2	Y2	Z2	X3	Y3	Z3	X4	Y4	Z4	X5	Y5	Z5	X6	Y6	Z6	X7	Y7	Z7	X8	Y8	Z8	X9	Y9	Z9	X10	Y10	Z10	X11	Y11	Z11	X12	Y12	Z12	X13	Y13	Z13	X14	Y14	Z14	X15	Y15	Z15	X16	Y16	Z16	X17	Y17	Z17	X18	Y18	Z18	X19	Y19	Z19	X20	Y20	Z20	X21	Y21	Z21	X22	Y22	Z22	X23	Y23	Z23	X24	Y24	Z24

133	0.528	-0.39885092	0.069788927	-0.099646724	-0.71212912	0.040081385	0.061972077	-0.52883618	0.10395735	-0.11393257	-0.85505784	0.055078665	0.09307087	-0.51277965	0.12218321	-0.030577482	-0.83188643	0.081010246	0.0094680958	-0.59023413	0.073754033	-0.063251188	-0.90428985	0.031660601	0.042797863	-0.46662636	0.4897191	-0.12585847	-0.73773961	0.44095313	0.13561259	-0.44973694	0.46455427	-0.0073994415	-0.72359612	0.44387444	0.0064473491	-0.62960949	0.82994308	-0.1820493	-0.70637902	0.85579606	0.19477157	-0.58942625	0.93636129	-0.10685676	-0.61825801	0.94074284	0.13618621	-0.7926769	0.95510063	-0.018642315	-0.62019476	1.4189424	-0.12904085	-0.66096979	1.4062525	0.18566098	-0.71774553	1.4423844	0.015475835	-0.77803767	1.1244761	-0.23787377	-0.7126127	1.0577287	0.26151933	-0.67081755	0.9018986	-0.24103755	-0.53158782	0.89207993	0.28801536
134	0.532	-0.38092729	0.069268981	-0.096048665	-0.71214715	0.040042241	0.061904096	-0.5113597	0.10131482	-0.11271018	-0.85504964	0.055091846	0.093026129	-0.49656851	0.12045802	-0.029253877	-0.83169454	0.0809686	0.0093418521	-0.57272161	0.070414112	-0.062888325	-0.90429272	0.031754391	0.042679289	-0.45920555	0.48895669	-0.12541978	-0.73565915	0.44045652	0.13567526	-0.44317119	0.46421409	-0.006606268	-0.72097228	0.44344434	0.0066563836	-0.62328961	0.82929185	-0.18161648	-0.70246296	0.85501709	0.19487226	-0.58357529	0.93549027	-0.1061806	-0.61397455	0.93993743	0.136856	-0.78840832	0.95375077	-0.018415127	-0.61538631	1.4179816	-0.12879361	-0.65614404	1.4052617	0.1859271	-0.71243556	1.4414521	0.015522883	-0.77434532	1.1242491	-0.2376298	-0.70428722	1.0563822	0.26275446	-0.66873786	0.90102848	-0.24175092	-0.52076765	0.89308769	0.28746993
135	0.536	-0.36317902	0.068632993	-0.092352352	-0.71215165	0.039999344	0.061860445	-0.49393341	0.098820242	-0.11148513	-0.85499642	0.055105768	0.092964767	-0.48042356	0.11884689	-0.028003532	-0.83150838	0.080933116	0.009211811	-0.55532114	0.067378503	-0.062519686	-0.90429451	0.031864518	0.04255123	-0.45190181	0.48807421	-0.12496249	-0.73351137	0.43996583	0.13576661	-0.43663303	0.46371153	-0.0057430333	-0.71813474	0.44302142	0.0069571548	-0.6169019	0.8285878	-0.18113992	-0.69849985	0.85421983	0.19498946	-0.57764387	0.93461027	-0.10546049	-0.60968415	0.9391019	0.13753489	-0.78404981	0.95242564	-0.018233232	-0.61054011	1.4169768	-0.12854653	-0.65130531	1.4042387	0.18616467	-0.70718984	1.4404859	0.015602107	-0.77061218	1.123966	-0.23735219	-0.69593848	1.0550303	0.26394199	-0.66662124	0.90011911	-0.24244817	-0.51001645	0.8941047	0.28688702
136	0.54	-0.34561905	0.067890191	-0.088582858	-0.71213998	0.039967967	0.061846584	-0.4766006	0.096498443	-0.11027309	-0.85491256	0.055126168	0.09289423	-0.46436725	0.11740032	-0.026827386	-0.83131409	0.080909158	0.0090975522	-0.53810516	0.064660586	-0.062153372	-0.90429388	0.031988615	0.042417112	-0.44473117	0.487078	-0.1245047	-0.73132988	0.43946622	0.13586604	-0.43023279	0.46303609	-0.0049309921	-0.71529086	0.44256256	0.0072344007	-0.61050735	0.82781264	-0.1806228	-0.69448525	0.85341355	0.19511203	-0.57165328	0.9337155	-0.10470048	-0.60536508	0.93824756	0.13822162	-0.77957807	0.95109833	-0.018138154	-0.60567214	1.4159274	-0.12830128	-0.6464681	1.4031743	0.18636587	-0.70227914	1.4394895	0.015798828	-0.76684519	1.123645	-0.23707186	-0.68757697	1.0536776	0.26508255	-0.66447657	0.89917072	-0.24312756	-0.49935136	0.89512886	0.28627155
137	0.544	-0.32827074	0.067054145	-0.084769336	-0.71211932	0.039947136	0.06185796	-0.4594505	0.094362464	-0.10910136	-0.85481764	0.05514136	0.092809059	-0.4484139	0.11612113	-0.025732691	-0.83109978	0.080903304	0.0090192776	-0.52111753	0.06226097	-0.061904164	-0.90428888	0.032126276	0.042280925	-0.43768316	0.48597754	-0.12406888	-0.72913808	0.43894143	0.13595845	-0.42408515	0.46217157	-0.0042917205	-0.71253237	0.44205815	0.0074418967	-0.60419982	0.82695564	-0.18008663	-0.69042106	0.85260624	0.19523734	-0.56562816	0.93278997	-0.10391426	-0.60101411	0.93737818	0.13891273	-0.77508685	0.94975586	-0.018075393	-0.60079924	1.4148349	-0.12805665	-0.64164069	1.40206	0.18654273	-0.69763352	1.4384532	0.016078489	-0.76304802	1.1232902	-0.23681736	-0.67920998	1.0523259	0.26617229	-0.66232095	0.89818839	-0.24378417	-0.48878024	0.89616305	0.28562525
138	0.548	-0.31115997	0.066151126	-0.080937341	-0.7120978	0.039926037	0.061886678	-0.44251433	0.092407943	-0.10797791	-0.85471249	0.055131844	0.092689825	-0.43258056	0.11497364	-0.024710495	-0.83086133	0.080918193	0.008986487	-0.50435221	0.060159366	-0.061767776	-0.90427693	0.032280387	0.042143284	-0.43075709	0.48477236	-0.12366033	-0.72694415	0.43839228	0.13604256	-0.41819198	0.46111125	-0.0038371223	-0.70984087	0.44151403	0.0075927504	-0.59799561	0.82602484	-0.1795551	-0.68631487	0.85178869	0.19537912	-0.55958502	0.93182702	-0.1031154	-0.59663601	0.9364911	0.13960465	-0.77051848	0.94837448	-0.018031875	-0.59592967	1.4137009	-0.12781297	-0.63679774	1.4008993	0.18672979	-0.69303384	1.4373703	0.016364998	-0.75921659	1.1228872	-0.23657213	-0.67084422	1.0509745	0.26720836	-0.66016068	0.89717535	-0.24441531	-0.47830885	0.89720804	0.28493799
139	0.552	-0.29430718	0.065221785	-0.077105536	-0.71207775	0.039889317	0.061926524	-0.42575809	0.090624452	-0.10688689	-0.85455462	0.055102563	0.092519709	-0.4168998	0.11392934	-0.023738635	-0.83061474	0.080942708	0.0089701417	-0.48777681	0.058327279	-0.061621176	-0.90425573	0.032454406	0.042003014	-0.42398068	0.48345331	-0.12327439	-0.72473544	0.43783167	0.13612317	-0.41245781	0.45986694	-0.0034892404	-0.70716823	0.44093481	0.0077161747	-0.59181866	0.8250363	-0.17903383	-0.68217843	0.85092957	0.19556944	-0.55352397	0.93083429	-0.1023094	-0.59223834	0.93558589	0.140292	-0.76552272	0.94692239	-0.018102377	-0.59106299	1.4125265	-0.12757639	-0.63191381	1.3997028	0.18696327	-0.68834422	1.4362413	0.016614987	-0.75534293	1.122425	-0.23629226	-0.66248721	1.0496224	0.26818948	-0.65798389	0.89613199	-0.24502602	-0.46794429	0.89825264	0.2841758
140	0.556	-0.27772943	0.064311414	-0.073285312	-0.71205746	0.039822602	0.061972185	-0.40916273	0.08900762	-0.10581161	-0.85426067	0.055115989	0.092313346	-0.40142133	0.1129945	-0.022802215	-0.83039004	0.080953952	0.0089050111	-0.47137753	0.056745481	-0.061429668	-0.90422592	0.032647839	0.041861081	-0.41737445	0.48201906	-0.12289926	-0.72248394	0.437266	0.13620169	-0.4067916	0.45845532	-0.0031740362	-0.70449895	0.44032013	0.0078279847	-0.58558978	0.82399793	-0.17851087	-0.6780325	0.84999688	0.19585139	-0.54743422	0.92982259	-0.10149373	-0.58782317	0.93466705	0.14096571	-0.75961492	0.94542003	-0.018457982	-0.58619465	1.4113127	-0.12735296	-0.62700536	1.3984786	0.18724504	-0.68355117	1.4350658	0.016821682	-0.75142353	1.1219097	-0.23596558	-0.65414253	1.0482674	0.26910974	-0.65577384	0.89505686	-0.24562399	-0.45768986	0.89927862	0.28329065
